<svg xmlns:mydata="http://www.w3.org/2000/svg" mydata:contrastcolor="AD1AAC" mydata:template="Default" mydata:presentation="2.5" mydata:layouttype="undefined" mydata:specialfontid="undefined" mydata:id1="915" mydata:id2="911" mydata:companyname="VHT" mydata:companytagline="" version="1.1" xmlns="http://www.w3.org/2000/svg" xmlns:xlink="http://www.w3.org/1999/xlink" viewBox="0 0 550 470"><g fill="#f1b434" fill-rule="nonzero" stroke="none" stroke-width="1" stroke-linecap="butt" stroke-linejoin="miter" stroke-miterlimit="10" stroke-dasharray="" stroke-dashoffset="0" font-family="none" font-weight="none" font-size="none" text-anchor="none" style="mix-blend-mode: normal"><g data-paper-data="{&quot;isGlobalGroup&quot;:true,&quot;bounds&quot;:{&quot;x&quot;:89.73758999233715,&quot;y&quot;:170.1820185290928,&quot;width&quot;:370.52482001532564,&quot;height&quot;:129.63596294181443}}"><g data-paper-data="{&quot;isPrimaryText&quot;:true}"><path d="M198.54461,170.18238c-0.58494,0.01309 -1.4072,0.4719 -2.37349,1.438c-1.5988,1.58921 -1.60286,1.99509 -0.03301,3.29718c1.46492,1.2156 1.98624,0.96076 2.87618,-1.40757c0.8053,-2.14354 0.49587,-3.35195 -0.47872,-3.32761zM196.94176,177.75981c-1.98402,-0.03614 -4.55667,2.11237 -11.63031,9.3398c-5.40218,5.51927 -11.65077,11.43041 -13.88651,13.13598c-2.23611,1.70557 -4.06615,3.9533 -4.06615,4.99501c0,1.04226 -0.36826,1.5267 -0.81839,1.07656c-1.26927,-1.2689 -5.30075,2.95861 -5.30075,5.55855c0,1.4474 -1.30117,2.77494 -3.45688,3.52658c-2.42439,0.84495 -3.43069,2.00413 -3.36486,3.87603c0.05901,1.73858 -0.76123,2.83635 -2.35523,3.14615c-3.69531,0.71845 -5.95687,2.84889 -4.1851,3.94408c2.13192,1.31777 0.04924,3.82237 -2.50405,3.0119c-2.16161,-0.68599 -4.32137,2.03031 -2.8133,3.53838c2.1168,2.1168 10.11393,-2.05539 10.11393,-5.27696c0,-1.61909 1.23607,-1.67644 3.62339,-0.16615c1.5291,0.96721 1.45773,1.49332 -0.49587,3.65198c-1.25544,1.38729 -3.29995,2.52286 -4.54192,2.52286c-1.24161,0 -2.25658,0.55119 -2.25658,1.22409c0,0.67327 0.54971,1.22261 1.22261,1.22261c0.67308,0 1.22409,0.55119 1.22409,1.22409c0,0.67308 -0.91945,1.22409 -2.04396,1.22409c-1.12506,0 -3.05561,0.91484 -4.29076,2.03234c-2.98664,2.70321 -4.43331,1.0773 -1.71461,-1.92704c2.0375,-2.25141 2.01962,-2.41904 -0.41436,-3.72168c-2.20974,-1.1826 -3.07737,-0.7651 -6.52631,3.14781c-2.18742,2.48229 -4.77243,5.66846 -5.7437,7.0799c-2.72607,3.95994 -14.32503,18.14168 -17.41973,21.29761c-2.33071,2.37718 -2.48247,2.99586 -0.96795,3.93227c1.57538,0.97532 1.56948,1.32699 -0.03909,2.86106c-1.00944,0.96149 -3.07497,2.11956 -4.58913,2.57376c-2.60474,0.78133 -2.7589,0.47558 -2.85737,-5.68266c-0.26942,-16.80658 1.36663,-35.10704 3.95237,-44.20637c0.80235,-2.82289 1.59991,-5.68192 1.76772,-6.35519c0.16744,-0.6729 1.49867,-4.52717 2.95548,-8.56548c3.77553,-10.46541 4.17606,-13.54426 2.13948,-16.45197c-1.72014,-2.45629 -12.45681,-8.62025 -15.03278,-8.6302c-1.19477,0 -2.25676,3.12734 -5.39572,15.90373c-5.435,22.12522 -7.33715,62.91935 -3.40893,73.11719c3.67632,9.54394 11.93255,22.40736 15.17182,23.63883c5.50268,2.09209 12.03729,-0.89105 17.35372,-7.9219c6.95543,-9.20057 20.98522,-29.70357 20.98522,-30.66802c0,-0.83259 8.64422,-12.51951 14.60773,-19.74915c5.95816,-7.22319 7.98109,-9.69681 15.89875,-19.44875c4.37153,-5.38466 10.17165,-12.17578 12.88998,-15.09032c4.85578,-5.20707 9.4355,-12.25194 6.97627,-10.73206c-0.68949,0.42598 -1.59898,0.21557 -2.02201,-0.46876c-0.42284,-0.68396 -0.18385,-1.31316 0.52795,-1.39706c0.71273,-0.08409 1.98421,-0.22332 2.82529,-0.30943c0.84144,-0.08593 1.54495,-1.07859 1.54495,-2.20697c0,-1.12875 0.42247,-2.45813 0.91853,-2.95437c1.25415,-1.25433 1.12488,-2.6584 -0.32529,-3.55516c-0.81968,-0.50675 -0.81895,-1.5184 0,-3.04934c0.99229,-1.85383 0.72416,-2.44947 -1.40591,-3.12568c-0.26942,-0.08593 -0.54178,-0.13591 -0.82485,-0.14089zM192.18924,184.69016c1.9654,0 0.65888,4.53252 -2.19314,7.60804c-1.68252,1.81474 -3.05801,3.77608 -3.05801,4.36028c0,0.58401 -2.19333,3.22508 -4.87441,5.86743c-2.68053,2.64235 -4.89672,5.63674 -4.89672,6.65558c0,1.01903 -2.20384,3.20313 -4.87256,4.85246c-3.85907,2.38474 -4.71526,3.54428 -4.18344,5.66237c0.37324,1.48797 0,3.08087 -0.86265,3.60938c-1.07453,0.66442 -1.29748,0.34004 -0.74869,-1.08984c1.17817,-3.07055 -1.32828,-2.44541 -4.67598,1.16637c-1.7714,1.91174 -3.72021,2.91343 -4.83531,2.48561c-2.72239,-1.04466 -2.30047,-2.72368 1.4179,-5.64873c1.80699,-1.4214 4.19616,-4.07703 5.31071,-5.90155c2.30508,-3.77479 27.15029,-29.62741 28.47229,-29.62741zM161.47051,228.72872c0.83333,0.01309 0.05588,1.7336 -2.22062,4.64371c-1.69617,2.16677 -3.7167,3.93873 -4.49103,3.93873c-0.7734,0 -0.18385,-0.8573 1.3126,-1.90491c1.4959,-1.0478 2.72017,-2.6678 2.72017,-3.59942c0,-0.9318 0.5877,-2.05723 1.30541,-2.50091c0.63952,-0.395 1.09593,-0.58106 1.37346,-0.57719zM152.29539,240.26885c0.65944,0 0.23659,1.40942 -1.48539,3.68443c-0.98141,1.29674 -2.17138,1.97001 -2.64549,1.49572c-0.47429,-0.47448 0.34502,-2.07162 1.82175,-3.54853c1.12801,-1.12783 1.91395,-1.63273 2.30913,-1.63162zM141.7588,242.85994c0.14457,0.0094 0.27919,0.03891 0.40403,0.08593c2.76314,1.06015 2.38695,3.15795 -1.07287,5.98988c-1.64472,1.34616 -3.01319,3.22176 -3.04602,4.16647c-0.03319,0.94434 -2.67223,4.54838 -5.86928,8.00857c-3.19723,3.46056 -6.5217,7.3685 -7.38749,8.68442c-1.42159,2.16105 -1.50051,2.03787 -0.82005,-1.26632c0.41454,-2.01261 1.12266,-3.94057 1.57409,-4.28375c0.75533,-0.57424 2.05484,-2.70634 5.60097,-9.19024c0.73652,-1.34616 2.02625,-2.88798 2.8677,-3.42645c0.84144,-0.5381 1.53758,-1.63863 1.5704,-2.44652c0.0721,-2.57837 4.02651,-6.48114 6.17852,-6.32255zM119.67341,276.47182c2.22947,0 1.18167,3.38606 -1.24456,4.02042c-2.06387,0.53976 -2.24127,0.28694 -1.18167,-1.69285c0.68507,-1.27978 1.77638,-2.32757 2.42623,-2.32757z" data-paper-data="{&quot;glyphName&quot;:&quot;V&quot;,&quot;glyphIndex&quot;:0,&quot;firstGlyphOfWord&quot;:true,&quot;word&quot;:1}"></path><path d="M243.27046,185.71656c-3.70693,0.00996 -10.69795,5.94341 -29.90956,25.39216c-10.527,10.65683 -19.82273,20.48954 -27.7793,29.35136c-12.88611,2.33753 -15.91424,4.12553 -15.91424,8.98371c0,2.98775 0.46526,5.8099 1.22575,8.1561c-5.94322,7.35356 -10.48275,13.65342 -13.43085,18.69914c-2.98517,5.1086 -3.11554,5.90892 -1.71959,10.40198c2.72405,8.77127 5.60613,13.01077 8.55386,12.59014c1.71664,-0.24508 2.8937,-1.4758 3.29165,-3.43936c1.11252,-5.49217 11.13757,-19.10908 24.32703,-33.92039c3.05284,-0.60559 6.30779,-1.25765 10.78683,-2.19462c14.19207,-2.96894 24.15904,-4.6439 33.93311,-5.55081c-0.93955,1.2429 -1.74798,2.18226 -2.15589,2.44504c-1.92114,1.23515 -6.9167,8.18154 -11.10807,15.45212c-2.89776,5.02894 -3.3206,6.84128 -2.68219,11.49919c0.41694,3.04196 1.37585,6.27792 2.13063,7.18704c0.75422,0.90912 1.00704,1.64896 0.56447,1.64896c-1.7797,0 2.06959,5.1062 4.56257,6.05147c3.6636,1.38932 5.38816,-0.34152 6.39133,-6.42342c1.25986,-7.64142 10.73575,-21.05438 27.35572,-38.93844c3.15519,-0.07302 8.20662,-0.16246 8.4126,-0.19879c1.44058,-0.25706 0.70628,-4.37208 -1.26392,-7.32203c3.21328,-3.30493 6.60911,-6.72086 10.24154,-10.2799c7.67332,-7.51916 17.80551,-16.76454 22.51727,-20.54099c4.71102,-3.77627 9.84728,-7.94458 11.41584,-9.26604c2.34638,-1.9772 2.70302,-3.10798 2.0021,-6.38488c-0.84569,-3.9544 -1.45589,-5.00626 -5.99375,-10.36989c-1.46935,-1.73637 -2.84299,-2.66448 -4.56221,-2.63111c-2.8653,0.05606 -6.69376,2.78121 -13.53356,8.88763c-8.90607,7.95085 -26.22734,25.67891 -36.52568,36.9747h-5.47999c-8.32612,0 -18.51842,0.92221 -30.33959,2.72737c4.30201,-4.09437 9.1447,-8.70194 11.15251,-10.61367c2.92579,-2.78527 8.38236,-7.19313 12.1282,-9.79251c3.74547,-2.5992 8.39121,-6.29157 10.32508,-8.21381c3.62911,-3.60754 4.41966,-6.20508 2.29088,-7.52063c-0.67308,-0.41602 -1.21929,-1.70373 -1.21929,-2.86198c0,-2.4325 -7.5636,-9.99794 -9.9913,-9.98485zM270.62599,223.8912c2.14888,0 0.48573,2.16862 -7.96339,10.40216c-0.02194,0.02102 -0.04186,0.04297 -0.06399,0.06399l-1.01386,-2.00228c4.61384,-4.60222 8.62781,-8.46387 9.04143,-8.46387zM202.26593,231.10405c0.12134,-0.02305 0.21963,-0.01401 0.29523,0.01899c0.62495,0.26407 -0.62514,2.3888 -2.779,4.72301c-0.98842,1.07158 -1.94917,1.94936 -2.75908,2.57966c-0.69779,0.123 -1.20472,0.21262 -1.93147,0.34004c0.23217,-0.86099 1.2949,-2.4834 2.79135,-4.15817c1.70354,-1.90694 3.52824,-3.34476 4.37651,-3.49726zM251.74096,234.69112c0.06989,0 0.08298,0.02102 0.14126,0.026c-3.00195,3.36504 -5.14106,5.92644 -5.65334,6.90472c-0.35922,0.68525 -0.75772,1.24548 -1.13594,1.75831c-2.9776,0.09589 -6.47431,0.29413 -9.98485,0.60301c-15.26218,1.3434 -22.76235,0.79885 -21.8499,-1.57833c0.30759,-0.80235 -0.16504,-1.08541 -1.64914,-0.99469c0.59674,-0.57701 1.17891,-1.18167 1.77749,-1.75186c5.40734,-0.66054 11.06934,-1.11769 11.70462,-0.72508c0.62311,0.38486 1.54624,0.03301 2.05355,-0.78944c0.5073,-0.82079 4.16297,-1.70096 8.12364,-1.95065c3.96067,-0.24969 9.68353,-0.76233 12.7124,-1.14221c1.87264,-0.2353 3.08438,-0.37121 3.76022,-0.35941zM255.53346,238.49652c0.92,0.13296 1.79187,0.30833 2.48967,0.53256c-1.43763,1.49 -2.90642,3.05782 -4.33778,4.63302c-0.55285,-0.01143 -1.11178,-0.05809 -1.6556,-0.16689c-0.24508,-0.04905 -0.81378,-0.05993 -1.23202,-0.08999c1.48207,-1.56579 3.11277,-3.23799 4.73573,-4.90907zM245.11876,253.63405c-3.60163,4.40011 -7.35762,9.16 -11.68563,14.92601c-4.04218,5.38447 -7.86252,9.97692 -8.48969,10.20964c-2.60916,0.96776 5.1973,-10.53973 16.76786,-24.9944c1.09205,-0.07284 2.29696,-0.08501 3.40746,-0.14126zM245.31736,256.93252c0.18736,0 0.6067,0.70388 0.93715,1.56579c0.33082,0.86191 -0.67843,2.17341 -2.24607,2.91306c-2.78177,1.31297 -2.79984,1.27738 -0.93697,-1.56561c1.04927,-1.60157 2.05871,-2.91325 2.24588,-2.91325zM172.83749,261.62326c0.47134,0.62661 0.9827,1.07398 1.5208,1.41181c-1.06052,1.367 -2.38474,3.21899 -3.71541,5.22349c-4.62306,6.9652 -7.57946,10.00329 -8.66303,8.91954c-0.56797,-0.56816 6.36404,-10.1403 10.85764,-15.55484zM238.1176,266.72485c0.92719,0 1.68123,0.41289 1.68123,0.92387c0,1.29969 -4.98745,4.28504 -5.80086,3.47163c-0.99985,-0.99967 2.18447,-4.3955 4.11963,-4.3955z" data-paper-data="{&quot;glyphName&quot;:&quot;H&quot;,&quot;glyphIndex&quot;:1,&quot;word&quot;:1}"></path><path d="M396.3024,185.21866c-35.89095,-0.03596 -63.65107,1.58184 -71.99895,4.31234c-3.29663,1.07841 -6.05589,2.30618 -6.12173,2.73364c-0.81452,5.12686 -1.06255,13.83285 -0.48757,16.99228c0.60577,3.33074 1.26429,3.97211 4.0361,3.97211c1.82064,0 5.23603,-0.53293 7.59163,-1.17448c4.64961,-1.26613 16.04056,-2.25695 29.93537,-2.94533c-12.69138,12.61024 -27.32787,27.55948 -31.8283,32.84862c-7.2999,8.57949 -21.2209,27.71789 -23.71093,32.59856c-3.06981,6.01606 -3.47347,10.68393 -1.34782,15.59965c0.87335,2.01925 1.5136,4.05159 1.41827,4.51758c-0.29228,1.42933 6.2639,6.01459 7.14869,4.99888c0.4564,-0.52427 1.77989,-3.43309 2.94552,-6.46196c5.0448,-13.10758 21.06083,-32.98674 46.337,-57.5157c17.51101,-16.9932 26.64944,-23.84149 33.6187,-25.19946c1.94493,-0.37895 3.91715,-1.39964 4.80636,-2.39359c17.38507,-0.06104 34.22134,0.35553 45.57374,1.37327c7.66576,0.68747 14.4106,0.95485 14.99018,0.59674c1.46529,-0.9058 1.31703,-2.18798 -0.47521,-4.08754c-1.22372,-1.2973 -1.22372,-1.73323 0,-2.18189c1.65799,-0.6078 2.14354,-4.02983 0.57147,-4.02983c-1.64177,0 -5.20634,-7.0244 -4.49859,-8.86827c1.73268,-4.51555 -2.06609,-5.01511 -42.65994,-5.57017c-5.42652,-0.07395 -10.71639,-0.11009 -15.84398,-0.11544zM395.6225,187.3941c11.72841,-0.00996 24.27116,0.25614 34.6582,0.85343c8.07662,0.46452 15.65331,1.192 16.8383,1.62351c2.05557,0.74906 2.05557,0.88238 0,2.93888c-1.88666,1.88666 -1.92206,2.306 -0.3146,3.37555c2.08158,1.38452 -15.12093,0.73578 -40.99826,-1.55307c-4.28799,-0.37914 -8.66211,-0.6941 -12.33326,-0.9047c-1.47875,-1.20177 -2.79836,-2.16382 -3.99165,-2.91343c2.92468,-0.20598 5.67178,-0.22295 6.20526,0.26315c0.49015,0.44718 3.24094,0.5451 6.11527,0.21815l5.22994,-0.59674l-4.89598,-0.75072c-1.81308,-0.27735 -7.90309,-0.34631 -14.82975,-0.30814c-1.17854,-0.52445 -2.29235,-0.87722 -3.33683,-0.9047c-1.30246,-0.03412 -2.5555,0.31441 -3.89539,0.98823c-1.06642,0.02194 -1.95747,0 -3.0285,0.0319c-11.10567,0.3063 -19.86385,0.20506 -19.46314,-0.23106c1.21376,-1.32127 18.49335,-2.11145 38.04039,-2.13044zM417.93434,189.36411c-1.16766,0.00996 -2.25934,0.1868 -3.13785,0.53902c-2.30489,0.92314 -1.53868,1.14276 3.86294,1.11658c6.08669,-0.02987 6.35814,-0.14421 2.86825,-1.15512c-1.18075,-0.3417 -2.42531,-0.50619 -3.59334,-0.50048zM418.64652,198.63033c0.35553,-0.01309 0.80032,-0.00996 1.33473,0.00996c1.62646,0.04702 4.0573,0.58365 5.40347,1.19348c1.70557,0.77285 0.9661,0.88515 -2.44522,0.36586c-4.97196,-0.75699 -6.78282,-1.4806 -4.29297,-1.56579zM410.70249,198.95747c1.00925,0 1.83521,0.45954 1.83521,1.0205c0,0.56078 -0.82595,1.02013 -1.83521,1.02013c-1.00981,0 -1.83558,-0.45936 -1.83558,-1.02013c0,-0.56096 0.82577,-1.0205 1.83558,-1.0205zM333.16564,245.53862c0.14789,0 0.272,0.04112 0.35959,0.12835c0.81618,0.81673 -0.62532,2.26506 -2.25897,2.26506c-0.76658,0 -0.69908,-0.57203 0.17961,-1.45017c0.59729,-0.59692 1.27222,-0.94932 1.71977,-0.94324zM325.51666,254.1502c0.03301,0.00996 0.0319,0.026 0.0319,0.05809c-0.11802,1.18592 -8.44192,10.11762 -8.95162,9.60626c-0.63178,-0.63454 3.52621,-5.68653 6.89826,-8.3807c1.01128,-0.80825 1.84904,-1.33326 2.02164,-1.28328zM330.85559,255.3245c0.06602,0.00996 0.12097,0.03006 0.16043,0.071c0.32197,0.32197 -0.62753,1.31647 -2.11145,2.20752c-2.57763,1.5479 -2.60197,1.51692 -0.58383,-0.59028c1.01645,-1.06144 2.07088,-1.74725 2.53485,-1.68768zM315.43537,265.63667c0.50195,0 0.16855,1.33823 -1.09076,3.94647c-1.24769,2.58205 -4.70254,4.89948 -4.61384,3.09304c0.03301,-0.4837 1.393,-2.53042 3.04805,-4.54985c1.36663,-1.66703 2.26617,-2.48653 2.65655,-2.48967zM307.71576,276.54558c0.4387,0.00996 0.74445,0.46858 0.74445,1.22575c0,1.00962 -0.5464,2.17636 -1.21911,2.59238c-0.67327,0.41584 -1.22593,-0.06897 -1.22593,-1.07804c0,-1.00962 0.55266,-2.17654 1.22593,-2.59256c0.16744,-0.10364 0.32843,-0.15011 0.47466,-0.14752z" data-paper-data="{&quot;glyphName&quot;:&quot;T&quot;,&quot;glyphIndex&quot;:2,&quot;lastGlyphOfWord&quot;:true,&quot;word&quot;:1}"></path></g></g></g></svg>